<svg xmlns="http://www.w3.org/2000/svg" width="28" height="28" viewBox="0 0 28 28"><g><g><path fill="#fff" d="M27.515 13.758c0 7.595-6.162 13.757-13.757 13.757C6.162 27.515 0 21.353 0 13.758 0 6.162 6.162 0 13.758 0c7.595 0 13.757 6.162 13.757 13.758zM13.758 2.198c-6.386 0-11.56 5.174-11.56 11.56 0 6.385 5.174 11.56 11.56 11.56 6.385 0 11.56-5.175 11.56-11.56 0-6.386-5.175-11.56-11.56-11.56zm6.878 11.56a6.88 6.88 0 0 1-6.878 6.878 6.88 6.88 0 0 1-6.88-6.878 6.88 6.88 0 0 1 6.88-6.88 6.88 6.88 0 0 1 6.878 6.88z"/></g></g></svg>